<svg xmlns="http://www.w3.org/2000/svg" width="556" height="383.102" viewBox="0 0 556 383.102">
  <g id="Grupo_952922" data-name="Grupo 952922" transform="translate(-818.273 -10924.22)">
    <path id="Trazado_656143" data-name="Trazado 656143" d="M10,0H546a10,10,0,0,1,10,10V373.1a10,10,0,0,1-10,10H10a10,10,0,0,1-10-10V10A10,10,0,0,1,10,0Z" transform="translate(818.273 10924.22)" fill="#ebc9b1" opacity="0.78"/>
    <path id="Trazado_656144" data-name="Trazado 656144" d="M0,0H358V54H0Z" transform="translate(917.273 10948)" fill="#fc9622"/>
    <path id="Trazado_656145" data-name="Trazado 656145" d="M0,0H358V15H0Z" transform="translate(917.273 11269)" fill="#fc9622"/>
    <path id="Trazado_656146" data-name="Trazado 656146" d="M0,0H358V267H0Z" transform="translate(917.273 11002)" fill="#f9eee6"/>
    <path id="Trazado_656147" data-name="Trazado 656147" d="M7.84-6.246h-2.8V0H1.523V-17.062h6.34a7.167,7.167,0,0,1,4.664,1.348,4.651,4.651,0,0,1,1.641,3.809,5.249,5.249,0,0,1-.756,2.912,5.155,5.155,0,0,1-2.291,1.857L14.813-.164V0H11.039Zm-2.8-2.848H7.875a2.9,2.9,0,0,0,2.051-.674,2.408,2.408,0,0,0,.727-1.857,2.578,2.578,0,0,0-.686-1.9,2.849,2.849,0,0,0-2.1-.691H5.039ZM22.453.234a6.225,6.225,0,0,1-4.541-1.711A6.082,6.082,0,0,1,16.16-6.035v-.328A7.66,7.66,0,0,1,16.9-9.779,5.418,5.418,0,0,1,18.99-12.1a5.871,5.871,0,0,1,3.088-.814,5.262,5.262,0,0,1,4.1,1.641,6.667,6.667,0,0,1,1.494,4.652v1.383H19.594a3.146,3.146,0,0,0,.99,1.992,2.993,2.993,0,0,0,2.092.75,3.656,3.656,0,0,0,3.059-1.418L27.4-2.051A5.084,5.084,0,0,1,25.336-.369,6.767,6.767,0,0,1,22.453.234Zm-.387-10.418a2.116,2.116,0,0,0-1.635.683,3.535,3.535,0,0,0-.8,1.954H24.34v-.271a2.521,2.521,0,0,0-.609-1.748A2.183,2.183,0,0,0,22.066-10.184ZM36.457-3.5a1.091,1.091,0,0,0-.615-.979,6.989,6.989,0,0,0-1.975-.639q-4.523-.949-4.523-3.844a3.484,3.484,0,0,1,1.4-2.818,5.649,5.649,0,0,1,3.662-1.131,6.08,6.08,0,0,1,3.861,1.137,3.582,3.582,0,0,1,1.447,2.953H36.328a1.639,1.639,0,0,0-.469-1.2,1.984,1.984,0,0,0-1.465-.475,2.027,2.027,0,0,0-1.324.387,1.221,1.221,0,0,0-.469.984,1.044,1.044,0,0,0,.533.908,5.485,5.485,0,0,0,1.8.6,14.693,14.693,0,0,1,2.133.568q2.684.984,2.684,3.41A3.307,3.307,0,0,1,38.262-.838,6.42,6.42,0,0,1,34.418.234a6.706,6.706,0,0,1-2.83-.568,4.748,4.748,0,0,1-1.939-1.559,3.621,3.621,0,0,1-.7-2.139h3.211a1.768,1.768,0,0,0,.668,1.383,2.649,2.649,0,0,0,1.664.48,2.452,2.452,0,0,0,1.471-.369A1.149,1.149,0,0,0,36.457-3.5ZM49.523-1.289A4.247,4.247,0,0,1,46.055.234,4.005,4.005,0,0,1,42.943-.937a5,5,0,0,1-1.1-3.434V-12.68h3.387v8.2q0,1.983,1.8,1.983a2.445,2.445,0,0,0,2.367-1.2V-12.68h3.4V0H49.617ZM58.934,0h-3.4V-18h3.4Zm6.844-15.8v3.117h2.168V-10.2H65.777v6.328a1.511,1.511,0,0,0,.27,1.008,1.354,1.354,0,0,0,1.031.3,5.4,5.4,0,0,0,1-.082V-.07a6.972,6.972,0,0,1-2.051.3q-3.562,0-3.633-3.6V-10.2H60.539V-12.68h1.852V-15.8ZM77.18,0a3.761,3.761,0,0,1-.34-1.137,4.1,4.1,0,0,1-3.2,1.371A4.5,4.5,0,0,1,70.553-.844a3.467,3.467,0,0,1-1.225-2.719,3.583,3.583,0,0,1,1.494-3.094,7.373,7.373,0,0,1,4.318-1.09H76.7v-.727a2.089,2.089,0,0,0-.451-1.406,1.775,1.775,0,0,0-1.424-.527,2.018,2.018,0,0,0-1.342.41A1.393,1.393,0,0,0,73-8.871H69.609a3.4,3.4,0,0,1,.68-2.039,4.493,4.493,0,0,1,1.922-1.471A7,7,0,0,1,75-12.914a5.534,5.534,0,0,1,3.721,1.178A4.12,4.12,0,0,1,80.1-8.426v5.5A6.062,6.062,0,0,0,80.6-.2V0Zm-2.8-2.355a2.917,2.917,0,0,0,1.383-.334,2.194,2.194,0,0,0,.938-.9v-2.18H75.434q-2.543,0-2.707,1.758l-.012.2a1.356,1.356,0,0,0,.445,1.043A1.73,1.73,0,0,0,74.379-2.355Zm7.793-4.078a7.641,7.641,0,0,1,1.33-4.723,4.316,4.316,0,0,1,3.639-1.758A3.884,3.884,0,0,1,90.2-11.531V-18h3.4V0H90.539l-.164-1.348A3.985,3.985,0,0,1,87.117.234a4.3,4.3,0,0,1-3.592-1.764A7.887,7.887,0,0,1,82.172-6.434Zm3.387.252a5.005,5.005,0,0,0,.621,2.735,2.023,2.023,0,0,0,1.8.951A2.266,2.266,0,0,0,90.2-3.822V-8.834a2.234,2.234,0,0,0-2.191-1.326Q85.559-10.16,85.559-6.181ZM95.7-6.457a7.52,7.52,0,0,1,.727-3.363,5.319,5.319,0,0,1,2.092-2.285,6.1,6.1,0,0,1,3.17-.809,5.774,5.774,0,0,1,4.189,1.57,6.3,6.3,0,0,1,1.811,4.266l.023.867a6.627,6.627,0,0,1-1.629,4.682A5.662,5.662,0,0,1,101.707.234,5.69,5.69,0,0,1,97.33-1.523,6.744,6.744,0,0,1,95.7-6.3Zm3.387.24a4.74,4.74,0,0,0,.68,2.764,2.242,2.242,0,0,0,1.945.957,2.247,2.247,0,0,0,1.922-.945,5.186,5.186,0,0,0,.691-3.022,4.692,4.692,0,0,0-.691-2.746,2.248,2.248,0,0,0-1.945-.974,2.211,2.211,0,0,0-1.922.968A5.274,5.274,0,0,0,99.082-6.217ZM116.66-3.5a1.091,1.091,0,0,0-.615-.979,6.989,6.989,0,0,0-1.975-.639q-4.523-.949-4.523-3.844a3.484,3.484,0,0,1,1.4-2.818,5.649,5.649,0,0,1,3.662-1.131,6.08,6.08,0,0,1,3.861,1.137,3.582,3.582,0,0,1,1.447,2.953h-3.387a1.639,1.639,0,0,0-.469-1.2A1.984,1.984,0,0,0,114.6-10.5a2.027,2.027,0,0,0-1.324.387,1.221,1.221,0,0,0-.469.984,1.044,1.044,0,0,0,.533.908,5.485,5.485,0,0,0,1.8.6,14.693,14.693,0,0,1,2.133.568q2.684.984,2.684,3.41a3.307,3.307,0,0,1-1.488,2.807A6.42,6.42,0,0,1,114.621.234a6.706,6.706,0,0,1-2.83-.568,4.748,4.748,0,0,1-1.939-1.559,3.621,3.621,0,0,1-.7-2.139h3.211a1.768,1.768,0,0,0,.668,1.383,2.649,2.649,0,0,0,1.664.48,2.452,2.452,0,0,0,1.471-.369A1.149,1.149,0,0,0,116.66-3.5Z" transform="translate(1033.273 10981)" fill="#31313c"/>
    <path id="Trazado_656148" data-name="Trazado 656148" d="M0,0H358V38H0Z" transform="translate(917.273 11002)" fill="#fdb768"/>
    <path id="Trazado_656149" data-name="Trazado 656149" d="M1.248-6.293l.738-6.5H9.158v2.118H4.069L3.753-7.928a4.027,4.027,0,0,1,1.925-.483A3.689,3.689,0,0,1,8.543-7.277,4.529,4.529,0,0,1,9.58-4.1a4.64,4.64,0,0,1-.523,2.219,3.691,3.691,0,0,1-1.5,1.521,4.678,4.678,0,0,1-2.3.541A4.968,4.968,0,0,1,3.1-.294,3.819,3.819,0,0,1,1.534-1.617,3.605,3.605,0,0,1,.923-3.56H3.437a1.878,1.878,0,0,0,.558,1.244,1.769,1.769,0,0,0,1.252.444,1.562,1.562,0,0,0,1.327-.62A2.87,2.87,0,0,0,7.04-4.245,2.374,2.374,0,0,0,6.5-5.915,1.967,1.967,0,0,0,4.983-6.5a2.2,2.2,0,0,0-1.468.475l-.246.229ZM17.367,0h-2.54V-9.791l-3.032.94v-2.065l5.3-1.9h.272Zm10.1-5.115a3.207,3.207,0,0,1-2.32.976A3.43,3.43,0,0,1,22.43-5.3a4.6,4.6,0,0,1-1.02-3.142,4.9,4.9,0,0,1,.549-2.307,4.029,4.029,0,0,1,1.534-1.635,4.255,4.255,0,0,1,2.215-.584,4.07,4.07,0,0,1,2.25.633,4.161,4.161,0,0,1,1.529,1.819A6.532,6.532,0,0,1,30.041-7.8v.94A7.4,7.4,0,0,1,28.45-1.837,6.014,6.014,0,0,1,23.941.114l-.624.009V-2L23.88-2Q27.193-2.153,27.466-5.115Zm-1.7-.967A1.777,1.777,0,0,0,26.829-6.4a2.114,2.114,0,0,0,.672-.765V-8.209a3.493,3.493,0,0,0-.492-2,1.528,1.528,0,0,0-1.318-.712,1.483,1.483,0,0,0-1.257.7,2.971,2.971,0,0,0-.492,1.753,2.891,2.891,0,0,0,.479,1.718A1.56,1.56,0,0,0,25.77-6.082Zm6.319,4.834a1.279,1.279,0,0,1,.409-.984,1.45,1.45,0,0,1,1.024-.378,1.462,1.462,0,0,1,1.033.378,1.279,1.279,0,0,1,.409.984,1.261,1.261,0,0,1-.4.971A1.468,1.468,0,0,1,33.521.1a1.456,1.456,0,0,1-1.028-.374A1.261,1.261,0,0,1,32.089-1.248Zm5.37-5.045.738-6.5h7.172v2.118H40.28l-.316,2.751a4.027,4.027,0,0,1,1.925-.483,3.689,3.689,0,0,1,2.865,1.134A4.529,4.529,0,0,1,45.791-4.1a4.64,4.64,0,0,1-.523,2.219,3.691,3.691,0,0,1-1.5,1.521,4.678,4.678,0,0,1-2.3.541,4.968,4.968,0,0,1-2.153-.47,3.819,3.819,0,0,1-1.569-1.323,3.605,3.605,0,0,1-.611-1.942h2.514a1.878,1.878,0,0,0,.558,1.244,1.769,1.769,0,0,0,1.252.444,1.562,1.562,0,0,0,1.327-.62,2.87,2.87,0,0,0,.466-1.753,2.374,2.374,0,0,0-.536-1.67,1.967,1.967,0,0,0-1.521-.58,2.2,2.2,0,0,0-1.468.475l-.246.229Z" transform="translate(989.273 11126)" fill="#12263f"/>
    <path id="Trazado_656150" data-name="Trazado 656150" d="M1.248-6.293l.738-6.5H9.158v2.118H4.069L3.753-7.928a4.027,4.027,0,0,1,1.925-.483A3.689,3.689,0,0,1,8.543-7.277,4.529,4.529,0,0,1,9.58-4.1a4.64,4.64,0,0,1-.523,2.219,3.691,3.691,0,0,1-1.5,1.521,4.678,4.678,0,0,1-2.3.541A4.968,4.968,0,0,1,3.1-.294,3.819,3.819,0,0,1,1.534-1.617,3.605,3.605,0,0,1,.923-3.56H3.437a1.878,1.878,0,0,0,.558,1.244,1.769,1.769,0,0,0,1.252.444,1.562,1.562,0,0,0,1.327-.62A2.87,2.87,0,0,0,7.04-4.245,2.374,2.374,0,0,0,6.5-5.915,1.967,1.967,0,0,0,4.983-6.5a2.2,2.2,0,0,0-1.468.475l-.246.229ZM17.367,0h-2.54V-9.791l-3.032.94v-2.065l5.3-1.9h.272Zm10.1-5.115a3.207,3.207,0,0,1-2.32.976A3.43,3.43,0,0,1,22.43-5.3a4.6,4.6,0,0,1-1.02-3.142,4.9,4.9,0,0,1,.549-2.307,4.029,4.029,0,0,1,1.534-1.635,4.255,4.255,0,0,1,2.215-.584,4.07,4.07,0,0,1,2.25.633,4.161,4.161,0,0,1,1.529,1.819A6.532,6.532,0,0,1,30.041-7.8v.94A7.4,7.4,0,0,1,28.45-1.837,6.014,6.014,0,0,1,23.941.114l-.624.009V-2L23.88-2Q27.193-2.153,27.466-5.115Zm-1.7-.967A1.777,1.777,0,0,0,26.829-6.4a2.114,2.114,0,0,0,.672-.765V-8.209a3.493,3.493,0,0,0-.492-2,1.528,1.528,0,0,0-1.318-.712,1.483,1.483,0,0,0-1.257.7,2.971,2.971,0,0,0-.492,1.753,2.891,2.891,0,0,0,.479,1.718A1.56,1.56,0,0,0,25.77-6.082Zm6.319,4.834a1.279,1.279,0,0,1,.409-.984,1.45,1.45,0,0,1,1.024-.378,1.462,1.462,0,0,1,1.033.378,1.279,1.279,0,0,1,.409.984,1.261,1.261,0,0,1-.4.971A1.468,1.468,0,0,1,33.521.1a1.456,1.456,0,0,1-1.028-.374A1.261,1.261,0,0,1,32.089-1.248Zm5.37-5.045.738-6.5h7.172v2.118H40.28l-.316,2.751a4.027,4.027,0,0,1,1.925-.483,3.689,3.689,0,0,1,2.865,1.134A4.529,4.529,0,0,1,45.791-4.1a4.64,4.64,0,0,1-.523,2.219,3.691,3.691,0,0,1-1.5,1.521,4.678,4.678,0,0,1-2.3.541,4.968,4.968,0,0,1-2.153-.47,3.819,3.819,0,0,1-1.569-1.323,3.605,3.605,0,0,1-.611-1.942h2.514a1.878,1.878,0,0,0,.558,1.244,1.769,1.769,0,0,0,1.252.444,1.562,1.562,0,0,0,1.327-.62,2.87,2.87,0,0,0,.466-1.753,2.374,2.374,0,0,0-.536-1.67,1.967,1.967,0,0,0-1.521-.58,2.2,2.2,0,0,0-1.468.475l-.246.229Zm18.563,1a6.483,6.483,0,0,1-1.1,4.061A3.835,3.835,0,0,1,51.706.176a3.862,3.862,0,0,1-3.2-1.38,6.293,6.293,0,0,1-1.134-3.955V-7.515a6.4,6.4,0,0,1,1.112-4.069,3.864,3.864,0,0,1,3.2-1.389,3.867,3.867,0,0,1,3.2,1.375,6.273,6.273,0,0,1,1.134,3.951Zm-2.54-2.59a4.686,4.686,0,0,0-.435-2.318,1.47,1.47,0,0,0-1.358-.726,1.444,1.444,0,0,0-1.323.691,4.385,4.385,0,0,0-.453,2.16V-4.96a4.919,4.919,0,0,0,.426,2.327,1.451,1.451,0,0,0,1.367.761,1.426,1.426,0,0,0,1.345-.73,4.8,4.8,0,0,0,.431-2.235Z" transform="translate(984.273 11169)" fill="#12263f"/>
    <path id="Trazado_656151" data-name="Trazado 656151" d="M1.248-6.293l.738-6.5H9.158v2.118H4.069L3.753-7.928a4.027,4.027,0,0,1,1.925-.483A3.689,3.689,0,0,1,8.543-7.277,4.529,4.529,0,0,1,9.58-4.1a4.64,4.64,0,0,1-.523,2.219,3.691,3.691,0,0,1-1.5,1.521,4.678,4.678,0,0,1-2.3.541A4.968,4.968,0,0,1,3.1-.294,3.819,3.819,0,0,1,1.534-1.617,3.605,3.605,0,0,1,.923-3.56H3.437a1.878,1.878,0,0,0,.558,1.244,1.769,1.769,0,0,0,1.252.444,1.562,1.562,0,0,0,1.327-.62A2.87,2.87,0,0,0,7.04-4.245,2.374,2.374,0,0,0,6.5-5.915,1.967,1.967,0,0,0,4.983-6.5a2.2,2.2,0,0,0-1.468.475l-.246.229ZM17.367,0h-2.54V-9.791l-3.032.94v-2.065l5.3-1.9h.272Zm10.1-5.115a3.207,3.207,0,0,1-2.32.976A3.43,3.43,0,0,1,22.43-5.3a4.6,4.6,0,0,1-1.02-3.142,4.9,4.9,0,0,1,.549-2.307,4.029,4.029,0,0,1,1.534-1.635,4.255,4.255,0,0,1,2.215-.584,4.07,4.07,0,0,1,2.25.633,4.161,4.161,0,0,1,1.529,1.819A6.532,6.532,0,0,1,30.041-7.8v.94A7.4,7.4,0,0,1,28.45-1.837,6.014,6.014,0,0,1,23.941.114l-.624.009V-2L23.88-2Q27.193-2.153,27.466-5.115Zm-1.7-.967A1.777,1.777,0,0,0,26.829-6.4a2.114,2.114,0,0,0,.672-.765V-8.209a3.493,3.493,0,0,0-.492-2,1.528,1.528,0,0,0-1.318-.712,1.483,1.483,0,0,0-1.257.7,2.971,2.971,0,0,0-.492,1.753,2.891,2.891,0,0,0,.479,1.718A1.56,1.56,0,0,0,25.77-6.082Zm6.319,4.834a1.279,1.279,0,0,1,.409-.984,1.45,1.45,0,0,1,1.024-.378,1.462,1.462,0,0,1,1.033.378,1.279,1.279,0,0,1,.409.984,1.261,1.261,0,0,1-.4.971A1.468,1.468,0,0,1,33.521.1a1.456,1.456,0,0,1-1.028-.374A1.261,1.261,0,0,1,32.089-1.248Zm5.37-5.045.738-6.5h7.172v2.118H40.28l-.316,2.751a4.027,4.027,0,0,1,1.925-.483,3.689,3.689,0,0,1,2.865,1.134A4.529,4.529,0,0,1,45.791-4.1a4.64,4.64,0,0,1-.523,2.219,3.691,3.691,0,0,1-1.5,1.521,4.678,4.678,0,0,1-2.3.541,4.968,4.968,0,0,1-2.153-.47,3.819,3.819,0,0,1-1.569-1.323,3.605,3.605,0,0,1-.611-1.942h2.514a1.878,1.878,0,0,0,.558,1.244,1.769,1.769,0,0,0,1.252.444,1.562,1.562,0,0,0,1.327-.62,2.87,2.87,0,0,0,.466-1.753,2.374,2.374,0,0,0-.536-1.67,1.967,1.967,0,0,0-1.521-.58,2.2,2.2,0,0,0-1.468.475l-.246.229ZM54.3-12.929v2.092h-.246a4.315,4.315,0,0,0-2.773.9,3.642,3.642,0,0,0-1.261,2.417,3.46,3.46,0,0,1,2.575-1.037,3.26,3.26,0,0,1,2.654,1.2,4.792,4.792,0,0,1,.984,3.146,4.713,4.713,0,0,1-.541,2.259A3.877,3.877,0,0,1,54.163-.387a4.443,4.443,0,0,1-2.237.563A4.15,4.15,0,0,1,48.661-1.23a5.459,5.459,0,0,1-1.244-3.753V-5.9A8.215,8.215,0,0,1,48.2-9.576a5.768,5.768,0,0,1,2.259-2.47,6.619,6.619,0,0,1,3.415-.883ZM51.82-6.513a2.029,2.029,0,0,0-1.116.32,1.929,1.929,0,0,0-.738.847v.772a3.42,3.42,0,0,0,.5,1.987,1.619,1.619,0,0,0,1.406.715A1.6,1.6,0,0,0,53.2-2.517,2.63,2.63,0,0,0,53.7-4.188a2.625,2.625,0,0,0-.51-1.684A1.661,1.661,0,0,0,51.82-6.513Zm6.293.22.738-6.5h7.172v2.118H60.935l-.316,2.751a4.027,4.027,0,0,1,1.925-.483,3.689,3.689,0,0,1,2.865,1.134A4.529,4.529,0,0,1,66.445-4.1a4.64,4.64,0,0,1-.523,2.219,3.691,3.691,0,0,1-1.5,1.521,4.678,4.678,0,0,1-2.3.541,4.968,4.968,0,0,1-2.153-.47A3.819,3.819,0,0,1,58.4-1.617a3.605,3.605,0,0,1-.611-1.942H60.3a1.878,1.878,0,0,0,.558,1.244,1.769,1.769,0,0,0,1.252.444,1.562,1.562,0,0,0,1.327-.62,2.87,2.87,0,0,0,.466-1.753,2.374,2.374,0,0,0-.536-1.67,1.967,1.967,0,0,0-1.521-.58,2.2,2.2,0,0,0-1.468.475l-.246.229ZM76.4-9.4a2.977,2.977,0,0,1-.466,1.652,3.353,3.353,0,0,1-1.283,1.151,3.711,3.711,0,0,1,1.477,1.235,3.168,3.168,0,0,1,.545,1.85,3.354,3.354,0,0,1-1.16,2.694A4.706,4.706,0,0,1,72.36.176,4.727,4.727,0,0,1,69.2-.817a3.346,3.346,0,0,1-1.169-2.689,3.188,3.188,0,0,1,.545-1.854,3.644,3.644,0,0,1,1.468-1.23,3.318,3.318,0,0,1-1.279-1.151A3,3,0,0,1,68.3-9.4,3.317,3.317,0,0,1,69.39-12a4.291,4.291,0,0,1,2.962-.971,4.319,4.319,0,0,1,2.958.962A3.3,3.3,0,0,1,76.4-9.4Zm-2.276,5.7a1.843,1.843,0,0,0-.483-1.336,1.724,1.724,0,0,0-1.3-.5,1.72,1.72,0,0,0-1.292.5,1.839,1.839,0,0,0-.483,1.34,1.838,1.838,0,0,0,.475,1.318,1.729,1.729,0,0,0,1.318.5,1.725,1.725,0,0,0,1.3-.483A1.835,1.835,0,0,0,74.127-3.691Zm-.264-5.581a1.758,1.758,0,0,0-.4-1.2,1.4,1.4,0,0,0-1.116-.453,1.413,1.413,0,0,0-1.107.439,1.748,1.748,0,0,0-.4,1.213,1.837,1.837,0,0,0,.4,1.23,1.384,1.384,0,0,0,1.116.466,1.371,1.371,0,0,0,1.112-.466A1.85,1.85,0,0,0,73.863-9.272ZM87-5.291A6.483,6.483,0,0,1,85.9-1.23,3.835,3.835,0,0,1,82.688.176a3.862,3.862,0,0,1-3.2-1.38,6.293,6.293,0,0,1-1.134-3.955V-7.515a6.4,6.4,0,0,1,1.112-4.069,3.864,3.864,0,0,1,3.2-1.389,3.867,3.867,0,0,1,3.2,1.375A6.273,6.273,0,0,1,87-7.646Zm-2.54-2.59a4.686,4.686,0,0,0-.435-2.318,1.47,1.47,0,0,0-1.358-.726,1.444,1.444,0,0,0-1.323.691,4.385,4.385,0,0,0-.453,2.16V-4.96a4.919,4.919,0,0,0,.426,2.327,1.451,1.451,0,0,0,1.367.761,1.426,1.426,0,0,0,1.345-.73,4.8,4.8,0,0,0,.431-2.235ZM97.33-5.291a6.483,6.483,0,0,1-1.1,4.061A3.835,3.835,0,0,1,93.015.176a3.862,3.862,0,0,1-3.2-1.38,6.293,6.293,0,0,1-1.134-3.955V-7.515a6.4,6.4,0,0,1,1.112-4.069A3.864,3.864,0,0,1,93-12.973,3.867,3.867,0,0,1,96.2-11.6,6.273,6.273,0,0,1,97.33-7.646Zm-2.54-2.59a4.686,4.686,0,0,0-.435-2.318A1.47,1.47,0,0,0,93-10.925a1.444,1.444,0,0,0-1.323.691,4.385,4.385,0,0,0-.453,2.16V-4.96a4.919,4.919,0,0,0,.426,2.327,1.451,1.451,0,0,0,1.367.761,1.426,1.426,0,0,0,1.345-.73,4.8,4.8,0,0,0,.431-2.235ZM107.815,0H99.044V-1.74l4.14-4.412a10.212,10.212,0,0,0,1.261-1.626,2.612,2.612,0,0,0,.409-1.318,1.955,1.955,0,0,0-.431-1.34,1.555,1.555,0,0,0-1.23-.488,1.677,1.677,0,0,0-1.358.593,2.35,2.35,0,0,0-.5,1.56H98.789a4.2,4.2,0,0,1,.558-2.136,3.934,3.934,0,0,1,1.578-1.516,4.8,4.8,0,0,1,2.312-.549,4.54,4.54,0,0,1,3.072.949A3.358,3.358,0,0,1,107.4-9.343a4.3,4.3,0,0,1-.492,1.934,10.745,10.745,0,0,1-1.687,2.294l-2.909,3.067h5.5Z" transform="translate(958.273 11212)" fill="#12263f"/>
    <path id="Trazado_656152" data-name="Trazado 656152" d="M7.761-12.929v2.092H7.515a4.315,4.315,0,0,0-2.773.9A3.642,3.642,0,0,0,3.48-7.523,3.46,3.46,0,0,1,6.056-8.561a3.26,3.26,0,0,1,2.654,1.2,4.792,4.792,0,0,1,.984,3.146A4.713,4.713,0,0,1,9.154-1.96,3.877,3.877,0,0,1,7.625-.387,4.443,4.443,0,0,1,5.388.176,4.15,4.15,0,0,1,2.123-1.23,5.459,5.459,0,0,1,.879-4.983V-5.9a8.215,8.215,0,0,1,.787-3.678,5.768,5.768,0,0,1,2.259-2.47,6.619,6.619,0,0,1,3.415-.883ZM5.282-6.513a2.029,2.029,0,0,0-1.116.32,1.929,1.929,0,0,0-.738.847v.772a3.42,3.42,0,0,0,.5,1.987,1.619,1.619,0,0,0,1.406.715,1.6,1.6,0,0,0,1.323-.645,2.63,2.63,0,0,0,.505-1.671,2.625,2.625,0,0,0-.51-1.684A1.661,1.661,0,0,0,5.282-6.513ZM19.969,0H11.2V-1.74l4.14-4.412A10.212,10.212,0,0,0,16.6-7.778,2.612,2.612,0,0,0,17.007-9.1a1.955,1.955,0,0,0-.431-1.34,1.555,1.555,0,0,0-1.23-.488,1.677,1.677,0,0,0-1.358.593,2.35,2.35,0,0,0-.5,1.56H10.942a4.2,4.2,0,0,1,.558-2.136,3.934,3.934,0,0,1,1.578-1.516,4.8,4.8,0,0,1,2.312-.549,4.54,4.54,0,0,1,3.072.949,3.358,3.358,0,0,1,1.094,2.681,4.3,4.3,0,0,1-.492,1.934,10.745,10.745,0,0,1-1.687,2.294L14.467-2.048h5.5ZM30.138-5.291a6.483,6.483,0,0,1-1.1,4.061A3.835,3.835,0,0,1,25.822.176a3.862,3.862,0,0,1-3.2-1.38,6.293,6.293,0,0,1-1.134-3.955V-7.515A6.4,6.4,0,0,1,22.6-11.584a3.864,3.864,0,0,1,3.2-1.389A3.867,3.867,0,0,1,29-11.6a6.273,6.273,0,0,1,1.134,3.951ZM27.6-7.881a4.686,4.686,0,0,0-.435-2.318,1.47,1.47,0,0,0-1.358-.726,1.444,1.444,0,0,0-1.323.691,4.385,4.385,0,0,0-.453,2.16V-4.96a4.919,4.919,0,0,0,.426,2.327,1.451,1.451,0,0,0,1.367.761,1.426,1.426,0,0,0,1.345-.73A4.8,4.8,0,0,0,27.6-4.837Zm4.491,6.633a1.279,1.279,0,0,1,.409-.984,1.45,1.45,0,0,1,1.024-.378,1.462,1.462,0,0,1,1.033.378,1.279,1.279,0,0,1,.409.984,1.261,1.261,0,0,1-.4.971A1.468,1.468,0,0,1,33.521.1a1.456,1.456,0,0,1-1.028-.374A1.261,1.261,0,0,1,32.089-1.248ZM45.694-5.291A6.483,6.483,0,0,1,44.6-1.23,3.835,3.835,0,0,1,41.379.176a3.862,3.862,0,0,1-3.2-1.38,6.293,6.293,0,0,1-1.134-3.955V-7.515a6.4,6.4,0,0,1,1.112-4.069,3.864,3.864,0,0,1,3.2-1.389,3.867,3.867,0,0,1,3.2,1.375,6.273,6.273,0,0,1,1.134,3.951Zm-2.54-2.59a4.686,4.686,0,0,0-.435-2.318,1.47,1.47,0,0,0-1.358-.726,1.444,1.444,0,0,0-1.323.691,4.385,4.385,0,0,0-.453,2.16V-4.96a4.919,4.919,0,0,0,.426,2.327,1.451,1.451,0,0,0,1.367.761,1.426,1.426,0,0,0,1.345-.73,4.8,4.8,0,0,0,.431-2.235Zm12.867,2.59a6.483,6.483,0,0,1-1.1,4.061A3.835,3.835,0,0,1,51.706.176a3.862,3.862,0,0,1-3.2-1.38,6.293,6.293,0,0,1-1.134-3.955V-7.515a6.4,6.4,0,0,1,1.112-4.069,3.864,3.864,0,0,1,3.2-1.389,3.867,3.867,0,0,1,3.2,1.375,6.273,6.273,0,0,1,1.134,3.951Zm-2.54-2.59a4.686,4.686,0,0,0-.435-2.318,1.47,1.47,0,0,0-1.358-.726,1.444,1.444,0,0,0-1.323.691,4.385,4.385,0,0,0-.453,2.16V-4.96a4.919,4.919,0,0,0,.426,2.327,1.451,1.451,0,0,0,1.367.761,1.426,1.426,0,0,0,1.345-.73,4.8,4.8,0,0,0,.431-2.235ZM63.905,0h-2.54V-9.791l-3.032.94v-2.065l5.3-1.9h.272ZM74.232,0h-2.54V-9.791l-3.032.94v-2.065l5.3-1.9h.272Z" transform="translate(974.273 11255)" fill="#12263f"/>
    <path id="Trazado_656153" data-name="Trazado 656153" d="M7.778-3.357A1.353,1.353,0,0,0,7.251-4.5a6.917,6.917,0,0,0-1.9-.844,13.458,13.458,0,0,1-2.171-.875A3.547,3.547,0,0,1,1-9.4a3.09,3.09,0,0,1,.584-1.85,3.812,3.812,0,0,1,1.679-1.27,6.318,6.318,0,0,1,2.457-.457,5.751,5.751,0,0,1,2.443.5,3.891,3.891,0,0,1,1.666,1.4,3.668,3.668,0,0,1,.593,2.057H7.787a1.726,1.726,0,0,0-.554-1.367,2.276,2.276,0,0,0-1.556-.488,2.432,2.432,0,0,0-1.5.409,1.289,1.289,0,0,0-.536,1.077,1.235,1.235,0,0,0,.628,1.046,7.1,7.1,0,0,0,1.85.791A7.994,7.994,0,0,1,9.4-5.871a3.343,3.343,0,0,1,1.028,2.5A3.08,3.08,0,0,1,9.167-.769,5.5,5.5,0,0,1,5.783.176,6.534,6.534,0,0,1,3.094-.365a4.256,4.256,0,0,1-1.85-1.481,3.793,3.793,0,0,1-.637-2.18H3.252q0,2.118,2.531,2.118A2.462,2.462,0,0,0,7.251-2.29,1.244,1.244,0,0,0,7.778-3.357ZM20.276-9.4a2.977,2.977,0,0,1-.466,1.652,3.353,3.353,0,0,1-1.283,1.151A3.711,3.711,0,0,1,20-5.357a3.168,3.168,0,0,1,.545,1.85,3.354,3.354,0,0,1-1.16,2.694,4.706,4.706,0,0,1-3.155.989,4.727,4.727,0,0,1-3.164-.993A3.346,3.346,0,0,1,11.9-3.507a3.188,3.188,0,0,1,.545-1.854,3.644,3.644,0,0,1,1.468-1.23,3.318,3.318,0,0,1-1.279-1.151A3,3,0,0,1,12.173-9.4,3.317,3.317,0,0,1,13.263-12a4.291,4.291,0,0,1,2.962-.971,4.319,4.319,0,0,1,2.958.962A3.3,3.3,0,0,1,20.276-9.4ZM18-3.691a1.843,1.843,0,0,0-.483-1.336,1.724,1.724,0,0,0-1.3-.5,1.72,1.72,0,0,0-1.292.5,1.839,1.839,0,0,0-.483,1.34,1.838,1.838,0,0,0,.475,1.318,1.729,1.729,0,0,0,1.318.5,1.725,1.725,0,0,0,1.3-.483A1.835,1.835,0,0,0,18-3.691Zm-.264-5.581a1.758,1.758,0,0,0-.4-1.2,1.4,1.4,0,0,0-1.116-.453,1.413,1.413,0,0,0-1.107.439,1.748,1.748,0,0,0-.4,1.213,1.837,1.837,0,0,0,.4,1.23,1.384,1.384,0,0,0,1.116.466,1.371,1.371,0,0,0,1.112-.466A1.85,1.85,0,0,0,17.736-9.272ZM29.777-4.816h1.45v2.048h-1.45V0h-2.54V-2.769H21.99l-.114-1.6L27.211-12.8h2.566Zm-5.37,0h2.83V-9.334l-.167.29Zm16.884-6.563L36.343,0H33.662l4.957-10.749H32.256V-12.8h9.035Zm9.6,5.833H45.826v3.428h5.941V0H43.189V-12.8H51.75v2.136H45.826v3.05h5.063Z" transform="translate(1160.273 11126)" fill="#12263f"/>
    <path id="Trazado_656154" data-name="Trazado 656154" d="M11.558,0H8.921V-5.484H3.779V0H1.143V-12.8H3.779v5.186H8.921V-12.8h2.637Zm8.2,0h-2.54V-9.791l-3.032.94v-2.065l5.3-1.9h.272ZM26.5-7.523h1.354a1.907,1.907,0,0,0,1.433-.483,1.771,1.771,0,0,0,.466-1.283,1.566,1.566,0,0,0-.461-1.2,1.788,1.788,0,0,0-1.27-.431,1.874,1.874,0,0,0-1.222.4,1.279,1.279,0,0,0-.492,1.042h-2.54a3.124,3.124,0,0,1,.541-1.8,3.6,3.6,0,0,1,1.512-1.244,5.045,5.045,0,0,1,2.14-.448A4.785,4.785,0,0,1,31.14-12a3.314,3.314,0,0,1,1.151,2.676,2.693,2.693,0,0,1-.536,1.617,3.483,3.483,0,0,1-1.406,1.134,3.18,3.18,0,0,1,1.613,1.16,3.147,3.147,0,0,1,.532,1.828A3.369,3.369,0,0,1,31.25-.853,5,5,0,0,1,27.958.176,4.741,4.741,0,0,1,24.825-.835a3.3,3.3,0,0,1-1.217-2.672h2.54a1.472,1.472,0,0,0,.541,1.178,1.992,1.992,0,0,0,1.332.457,2,2,0,0,0,1.419-.479,1.654,1.654,0,0,0,.514-1.27q0-1.916-2.109-1.916H26.5Zm16.444-3.856L38,0H35.314l4.957-10.749H33.908V-12.8h9.035ZM48.287-12.8l3.287,9.281,3.27-9.281h3.463V0H55.661V-3.5l.264-6.038L52.471,0H50.66L47.215-9.527,47.479-3.5V0H44.842V-12.8Z" transform="translate(1157.273 11169)" fill="#12263f"/>
    <path id="Trazado_656155" data-name="Trazado 656155" d="M4.588-12.8,7.875-3.516l3.27-9.281h3.463V0H11.962V-3.5l.264-6.038L8.771,0H6.961L3.516-9.527,3.779-3.5V0H1.143V-12.8Zm18.94-.132v2.092h-.246a4.315,4.315,0,0,0-2.773.9,3.642,3.642,0,0,0-1.261,2.417,3.46,3.46,0,0,1,2.575-1.037,3.26,3.26,0,0,1,2.654,1.2,4.792,4.792,0,0,1,.984,3.146,4.713,4.713,0,0,1-.541,2.259A3.877,3.877,0,0,1,23.392-.387a4.443,4.443,0,0,1-2.237.563A4.15,4.15,0,0,1,17.89-1.23a5.459,5.459,0,0,1-1.244-3.753V-5.9a8.215,8.215,0,0,1,.787-3.678,5.768,5.768,0,0,1,2.259-2.47,6.619,6.619,0,0,1,3.415-.883ZM21.05-6.513a2.029,2.029,0,0,0-1.116.32,1.929,1.929,0,0,0-.738.847v.772a3.42,3.42,0,0,0,.5,1.987,1.619,1.619,0,0,0,1.406.715,1.6,1.6,0,0,0,1.323-.645,2.63,2.63,0,0,0,.505-1.671,2.625,2.625,0,0,0-.51-1.684A1.661,1.661,0,0,0,21.05-6.513Zm6.293.22.738-6.5h7.172v2.118H30.164l-.316,2.751a4.027,4.027,0,0,1,1.925-.483,3.689,3.689,0,0,1,2.865,1.134A4.529,4.529,0,0,1,35.675-4.1a4.64,4.64,0,0,1-.523,2.219,3.691,3.691,0,0,1-1.5,1.521,4.678,4.678,0,0,1-2.3.541A4.968,4.968,0,0,1,29.2-.294a3.819,3.819,0,0,1-1.569-1.323,3.605,3.605,0,0,1-.611-1.942h2.514a1.878,1.878,0,0,0,.558,1.244,1.769,1.769,0,0,0,1.252.444,1.562,1.562,0,0,0,1.327-.62,2.87,2.87,0,0,0,.466-1.753,2.374,2.374,0,0,0-.536-1.67,1.967,1.967,0,0,0-1.521-.58,2.2,2.2,0,0,0-1.468.475l-.246.229Zm18.65-5.086L41.045,0H38.364l4.957-10.749H36.958V-12.8h9.035Zm9.6,5.833H50.528v3.428H56.47V0H47.892V-12.8h8.561v2.136H50.528v3.05h5.063Z" transform="translate(1158.273 11212)" fill="#12263f"/>
    <path id="Trazado_656156" data-name="Trazado 656156" d="M1.143,0V-12.8H5.625a5.886,5.886,0,0,1,3.533.892,3.05,3.05,0,0,1,1.2,2.615,2.891,2.891,0,0,1-.483,1.657,2.792,2.792,0,0,1-1.345,1.05,2.7,2.7,0,0,1,1.551.993,2.936,2.936,0,0,1,.567,1.828A3.377,3.377,0,0,1,9.475-.967,5.3,5.3,0,0,1,6.117,0ZM3.779-5.572v3.454H6.038a2.18,2.18,0,0,0,1.455-.444,1.522,1.522,0,0,0,.523-1.226A1.607,1.607,0,0,0,6.2-5.572Zm0-1.863H5.73q2-.035,2-1.591a1.47,1.47,0,0,0-.505-1.252,2.658,2.658,0,0,0-1.6-.382H3.779Zm15.469-5.493v2.092H19a4.315,4.315,0,0,0-2.773.9,3.642,3.642,0,0,0-1.261,2.417,3.46,3.46,0,0,1,2.575-1.037,3.26,3.26,0,0,1,2.654,1.2,4.792,4.792,0,0,1,.984,3.146,4.713,4.713,0,0,1-.541,2.259A3.877,3.877,0,0,1,19.112-.387a4.443,4.443,0,0,1-2.237.563A4.15,4.15,0,0,1,13.61-1.23a5.459,5.459,0,0,1-1.244-3.753V-5.9a8.215,8.215,0,0,1,.787-3.678,5.768,5.768,0,0,1,2.259-2.47,6.619,6.619,0,0,1,3.415-.883ZM16.77-6.513a2.029,2.029,0,0,0-1.116.32,1.929,1.929,0,0,0-.738.847v.772a3.42,3.42,0,0,0,.5,1.987,1.619,1.619,0,0,0,1.406.715,1.6,1.6,0,0,0,1.323-.645,2.63,2.63,0,0,0,.505-1.671,2.625,2.625,0,0,0-.51-1.684A1.661,1.661,0,0,0,16.77-6.513Zm8.5-1.011h1.354a1.907,1.907,0,0,0,1.433-.483,1.771,1.771,0,0,0,.466-1.283,1.566,1.566,0,0,0-.461-1.2,1.788,1.788,0,0,0-1.27-.431,1.874,1.874,0,0,0-1.222.4,1.279,1.279,0,0,0-.492,1.042h-2.54a3.124,3.124,0,0,1,.541-1.8,3.6,3.6,0,0,1,1.512-1.244,5.045,5.045,0,0,1,2.14-.448A4.785,4.785,0,0,1,29.909-12a3.314,3.314,0,0,1,1.151,2.676,2.693,2.693,0,0,1-.536,1.617,3.483,3.483,0,0,1-1.406,1.134,3.18,3.18,0,0,1,1.613,1.16,3.147,3.147,0,0,1,.532,1.828A3.369,3.369,0,0,1,30.019-.853,5,5,0,0,1,26.728.176,4.741,4.741,0,0,1,23.594-.835a3.3,3.3,0,0,1-1.217-2.672h2.54a1.472,1.472,0,0,0,.541,1.178,1.992,1.992,0,0,0,1.332.457,2,2,0,0,0,1.419-.479,1.654,1.654,0,0,0,.514-1.27q0-1.916-2.109-1.916H25.269ZM38.953-5.115a3.207,3.207,0,0,1-2.32.976A3.43,3.43,0,0,1,33.917-5.3,4.6,4.6,0,0,1,32.9-8.446a4.9,4.9,0,0,1,.549-2.307,4.029,4.029,0,0,1,1.534-1.635,4.255,4.255,0,0,1,2.215-.584,4.07,4.07,0,0,1,2.25.633,4.161,4.161,0,0,1,1.529,1.819A6.532,6.532,0,0,1,41.528-7.8v.94a7.4,7.4,0,0,1-1.591,5.027A6.014,6.014,0,0,1,35.429.114L34.8.123V-2L35.367-2Q38.681-2.153,38.953-5.115Zm-1.7-.967A1.777,1.777,0,0,0,38.316-6.4a2.114,2.114,0,0,0,.672-.765V-8.209a3.493,3.493,0,0,0-.492-2,1.528,1.528,0,0,0-1.318-.712,1.483,1.483,0,0,0-1.257.7,2.971,2.971,0,0,0-.492,1.753,2.891,2.891,0,0,0,.479,1.718A1.56,1.56,0,0,0,37.257-6.082ZM50.836-2.637H46.213L45.334,0h-2.8l4.764-12.8h2.443L54.527,0h-2.8ZM46.925-4.772h3.2l-1.608-4.79Z" transform="translate(1159.273 11255)" fill="#12263f"/>
    <path id="Trazado_655908" data-name="Trazado 655908" d="M-7771,515h358.53" transform="translate(8687.743 10582)" fill="none" stroke="#707070" stroke-width="1"/>
    <path id="Trazado_655909" data-name="Trazado 655909" d="M-7771,515h358.53" transform="translate(8687.743 10625)" fill="none" stroke="#707070" stroke-width="1"/>
    <path id="Trazado_655910" data-name="Trazado 655910" d="M-7771,515h358.53" transform="translate(8687.743 10668)" fill="none" stroke="#707070" stroke-width="1"/>
    <path id="Trazado_655911" data-name="Trazado 655911" d="M-7771,515h358.53" transform="translate(8687.743 10711)" fill="none" stroke="#707070" stroke-width="1"/>
    <g id="Trazado_656157" data-name="Trazado 656157" transform="translate(891.273 10991)" fill="#fff" opacity="0.57">
      <path d="M 205 115 C 177.3647308349609 115 150.5577392578125 113.4688949584961 125.3235778808594 110.4491577148438 C 113.1994705200195 108.9983139038086 101.5067901611328 107.2027359008789 90.5703125 105.1123123168945 C 79.74352264404297 103.042839050293 69.56426239013672 100.6667404174805 60.31536865234375 98.04994964599609 C 51.07731628417969 95.43626403808594 42.69358062744141 92.56168365478516 35.39705276489258 89.50599670410156 C 28.0523681640625 86.43010711669922 21.75031661987305 83.14604949951172 16.66589546203613 79.74505615234375 C 11.53210544586182 76.31094360351562 7.598736763000488 72.73042297363281 4.975157737731934 69.10299682617188 C 2.33742094039917 65.45600128173828 1 61.72042083740234 1 58 C 1 54.27957916259766 2.33742094039917 50.54399871826172 4.975157737731934 46.89699935913086 C 7.598736763000488 43.26958084106445 11.53210544586182 39.68905258178711 16.66589546203613 36.25494766235352 C 21.75031661987305 32.85394668579102 28.0523681640625 29.56989479064941 35.39705276489258 26.49399948120117 C 42.69358062744141 23.43831634521484 51.07731628417969 20.56373596191406 60.31536865234375 17.95005226135254 C 69.56426239013672 15.3332633972168 79.74352264404297 12.95715808868408 90.5703125 10.8876838684082 C 101.5067901611328 8.797263145446777 113.1994705200195 7.001684188842773 125.3235778808594 5.55084228515625 C 150.5577392578125 2.531105279922485 177.3647308349609 1 205 1 C 232.6352691650391 1 259.4422607421875 2.531105279922485 284.6764221191406 5.55084228515625 C 296.800537109375 7.001684188842773 308.4932250976562 8.797263145446777 319.4296875 10.8876838684082 C 330.2564697265625 12.95715808868408 340.4357299804688 15.3332633972168 349.6846313476562 17.95005226135254 C 358.9226989746094 20.56373596191406 367.3064270019531 23.43831634521484 374.6029357910156 26.49399948120117 C 381.9476318359375 29.56989479064941 388.2496948242188 32.85394668579102 393.3341064453125 36.25494766235352 C 398.4678955078125 39.68905258178711 402.4012756347656 43.26958084106445 405.0248413085938 46.89699935913086 C 407.6625671386719 50.54399871826172 409 54.27957916259766 409 58 C 409 61.72042083740234 407.6625671386719 65.45600128173828 405.0248413085938 69.10299682617188 C 402.4012756347656 72.73042297363281 398.4678955078125 76.31094360351562 393.3341064453125 79.74505615234375 C 388.2496948242188 83.14604949951172 381.9476318359375 86.43010711669922 374.6029357910156 89.50599670410156 C 367.3064270019531 92.56168365478516 358.9226989746094 95.43626403808594 349.6846313476562 98.04994964599609 C 340.4357299804688 100.6667404174805 330.2564697265625 103.042839050293 319.4296875 105.1123123168945 C 308.4932250976562 107.2027359008789 296.800537109375 108.9983139038086 284.6764221191406 110.4491577148438 C 259.4422607421875 113.4688949584961 232.6352691650391 115 205 115 Z" stroke="none"/>
      <path d="M 205 2 C 177.4043121337891 2 150.6372680664062 3.528739929199219 125.4423828125 6.543739318847656 C 113.3412780761719 7.991897583007812 101.6717834472656 9.783843994140625 90.758056640625 11.86994934082031 C 79.95956420898438 13.93394470214844 69.80877685546875 16.30336761474609 60.58758544921875 18.91226196289062 C 51.38821411132812 21.51499938964844 43.0428466796875 24.37621307373047 35.78335571289062 27.41641998291016 C 28.49789428710938 30.46747589111328 22.25296020507812 33.72084045410156 17.22189331054688 37.08615875244141 C 12.18704223632812 40.45405578613281 8.339263916015625 43.95204925537109 5.785430908203125 47.48305511474609 C 3.273590087890625 50.95600128173828 2 54.49442291259766 2 58 C 2 61.50557708740234 3.273590087890625 65.04399871826172 5.785430908203125 68.51695251464844 C 8.339263916015625 72.04794311523438 12.18704223632812 75.54594421386719 17.22189331054688 78.91384124755859 C 22.25296020507812 82.27915954589844 28.49789428710938 85.53252410888672 35.78335571289062 88.58358001708984 C 43.0428466796875 91.62378692626953 51.38821411132812 94.48500061035156 60.58758544921875 97.08773803710938 C 69.80877685546875 99.69663238525391 79.95956420898438 102.0660552978516 90.758056640625 104.1300506591797 C 101.6717834472656 106.2161560058594 113.3412780761719 108.0081024169922 125.4423828125 109.4562606811523 C 150.6372680664062 112.4712600708008 177.4043121337891 114 205 114 C 232.5956878662109 114 259.3627319335938 112.4712600708008 284.5576171875 109.4562606811523 C 296.6587524414062 108.0081024169922 308.3282165527344 106.2161560058594 319.241943359375 104.1300506591797 C 330.0404052734375 102.0660552978516 340.1912231445312 99.69663238525391 349.4124145507812 97.08773803710938 C 358.6117858886719 94.48500061035156 366.9571533203125 91.62378692626953 374.2166442871094 88.58358001708984 C 381.5021057128906 85.53252410888672 387.7470397949219 82.27915954589844 392.7781066894531 78.91384124755859 C 397.8129577636719 75.54594421386719 401.6607360839844 72.04794311523438 404.2145690917969 68.51695251464844 C 406.7264099121094 65.04399871826172 408 61.50557708740234 408 58 C 408 54.49442291259766 406.7264099121094 50.95600128173828 404.2145690917969 47.48305511474609 C 401.6607360839844 43.95204925537109 397.8129577636719 40.45405578613281 392.7781066894531 37.08615875244141 C 387.7470397949219 33.72084045410156 381.5021057128906 30.46747589111328 374.2166442871094 27.41641998291016 C 366.9571533203125 24.37621307373047 358.6117858886719 21.51499938964844 349.4124145507812 18.91226196289062 C 340.1912231445312 16.30336761474609 330.0404052734375 13.93394470214844 319.241943359375 11.86994934082031 C 308.3282165527344 9.783843994140625 296.6587524414062 7.991897583007812 284.5576171875 6.543739318847656 C 259.3627319335938 3.528739929199219 232.5956878662109 2 205 2 M 205 0 C 318.2183837890625 0 410 25.96747589111328 410 58 C 410 90.03252410888672 318.2183837890625 116 205 116 C 91.78164672851562 116 0 90.03252410888672 0 58 C 0 25.96747589111328 91.78164672851562 0 205 0 Z" stroke="none" fill="#db110b"/>
    </g>
    <g id="Trazado_656158" data-name="Trazado 656158" transform="translate(892.273 10991)" fill="none">
      <path d="M205,0C318.218,0,410,25.967,410,58s-91.782,58-205,58S0,90.033,0,58,91.782,0,205,0Z" stroke="none"/>
      <path d="M 205 2 C 177.4043121337891 2 150.6372680664062 3.528739929199219 125.4423828125 6.543739318847656 C 113.3412780761719 7.991897583007812 101.6717834472656 9.783843994140625 90.758056640625 11.86994934082031 C 79.95956420898438 13.93394470214844 69.80877685546875 16.30336761474609 60.58758544921875 18.91226196289062 C 51.38821411132812 21.51499938964844 43.0428466796875 24.37621307373047 35.78335571289062 27.41641998291016 C 28.49789428710938 30.46747589111328 22.25296020507812 33.72084045410156 17.22189331054688 37.08615875244141 C 12.18704223632812 40.45405578613281 8.339263916015625 43.95204925537109 5.785430908203125 47.48305511474609 C 3.273590087890625 50.95600128173828 2 54.49442291259766 2 58 C 2 61.50557708740234 3.273590087890625 65.04399871826172 5.785430908203125 68.51695251464844 C 8.339263916015625 72.04794311523438 12.18704223632812 75.54594421386719 17.22189331054688 78.91384124755859 C 22.25296020507812 82.27915954589844 28.49789428710938 85.53252410888672 35.78335571289062 88.58358001708984 C 43.0428466796875 91.62378692626953 51.38821411132812 94.48500061035156 60.58758544921875 97.08773803710938 C 69.80877685546875 99.69663238525391 79.95956420898438 102.0660552978516 90.758056640625 104.1300506591797 C 101.6717834472656 106.2161560058594 113.3412780761719 108.0081024169922 125.4423828125 109.4562606811523 C 150.6372680664062 112.4712600708008 177.4043121337891 114 205 114 C 232.5956878662109 114 259.3627319335938 112.4712600708008 284.5576171875 109.4562606811523 C 296.6587524414062 108.0081024169922 308.3282165527344 106.2161560058594 319.241943359375 104.1300506591797 C 330.0404052734375 102.0660552978516 340.1912231445312 99.69663238525391 349.4124145507812 97.08773803710938 C 358.6117858886719 94.48500061035156 366.9571533203125 91.62378692626953 374.2166442871094 88.58358001708984 C 381.5021057128906 85.53252410888672 387.7470397949219 82.27915954589844 392.7781066894531 78.91384124755859 C 397.8129577636719 75.54594421386719 401.6607360839844 72.04794311523438 404.2145690917969 68.51695251464844 C 406.7264099121094 65.04399871826172 408 61.50557708740234 408 58 C 408 54.49442291259766 406.7264099121094 50.95600128173828 404.2145690917969 47.48305511474609 C 401.6607360839844 43.95204925537109 397.8129577636719 40.45405578613281 392.7781066894531 37.08615875244141 C 387.7470397949219 33.72084045410156 381.5021057128906 30.46747589111328 374.2166442871094 27.41641998291016 C 366.9571533203125 24.37621307373047 358.6117858886719 21.51499938964844 349.4124145507812 18.91226196289062 C 340.1912231445312 16.30336761474609 330.0404052734375 13.93394470214844 319.241943359375 11.86994934082031 C 308.3282165527344 9.783843994140625 296.6587524414062 7.991897583007812 284.5576171875 6.543739318847656 C 259.3627319335938 3.528739929199219 232.5956878662109 2 205 2 M 205 0 C 318.2183837890625 0 410 25.96747589111328 410 58 C 410 90.03252410888672 318.2183837890625 116 205 116 C 91.78164672851562 116 0 90.03252410888672 0 58 C 0 25.96747589111328 91.78164672851562 0 205 0 Z" stroke="none" fill="#db110b"/>
    </g>
    <path id="Trazado_655912" data-name="Trazado 655912" d="M-7490,296V563" transform="translate(8586.773 10706)" fill="none" stroke="#707070" stroke-width="1"/>
    <path id="Trazado_656159" data-name="Trazado 656159" d="M13.675-5.21a5.535,5.535,0,0,1-1.864,3.975A6.546,6.546,0,0,1,7.38.215,5.886,5.886,0,0,1,2.648-1.81,8.3,8.3,0,0,1,.924-7.369v-.956A9.376,9.376,0,0,1,1.719-12.3a5.957,5.957,0,0,1,2.272-2.637,6.364,6.364,0,0,1,3.432-.918,6.376,6.376,0,0,1,4.361,1.45A5.948,5.948,0,0,1,13.7-10.334H10.474a3.266,3.266,0,0,0-.843-2.2,3.123,3.123,0,0,0-2.208-.682,2.738,2.738,0,0,0-2.412,1.155,6.472,6.472,0,0,0-.822,3.583v1.182a6.927,6.927,0,0,0,.768,3.706A2.687,2.687,0,0,0,7.38-2.417,3.182,3.182,0,0,0,9.609-3.1a3.081,3.081,0,0,0,.843-2.111ZM18.863,0H15.748V-16.5h3.115Zm9.292,0a3.448,3.448,0,0,1-.312-1.042A3.756,3.756,0,0,1,24.911.215a4.127,4.127,0,0,1-2.831-.988,3.178,3.178,0,0,1-1.123-2.492A3.285,3.285,0,0,1,22.328-6.1a6.758,6.758,0,0,1,3.958-1h1.429v-.666A1.915,1.915,0,0,0,27.3-9.056,1.627,1.627,0,0,0,26-9.539a1.85,1.85,0,0,0-1.23.376,1.277,1.277,0,0,0-.446,1.031h-3.1A3.118,3.118,0,0,1,21.839-10,4.118,4.118,0,0,1,23.6-11.349a6.42,6.42,0,0,1,2.557-.489,5.073,5.073,0,0,1,3.411,1.08A3.777,3.777,0,0,1,30.83-7.724v5.038a5.557,5.557,0,0,0,.462,2.5V0ZM25.588-2.159a2.674,2.674,0,0,0,1.268-.306,2.011,2.011,0,0,0,.859-.822v-2h-1.16q-2.331,0-2.481,1.611l-.011.183a1.243,1.243,0,0,0,.408.956A1.586,1.586,0,0,0,25.588-2.159ZM39.51-3.212a1,1,0,0,0-.564-.9,6.406,6.406,0,0,0-1.81-.585q-4.146-.87-4.146-3.523A3.194,3.194,0,0,1,34.273-10.8a5.178,5.178,0,0,1,3.357-1.037,5.573,5.573,0,0,1,3.54,1.042A3.284,3.284,0,0,1,42.5-8.089h-3.1a1.5,1.5,0,0,0-.43-1.1,1.818,1.818,0,0,0-1.343-.435,1.858,1.858,0,0,0-1.214.354,1.119,1.119,0,0,0-.43.9.957.957,0,0,0,.489.833,5.028,5.028,0,0,0,1.649.548,13.468,13.468,0,0,1,1.955.521,3.212,3.212,0,0,1,2.46,3.126A3.032,3.032,0,0,1,41.164-.768a5.885,5.885,0,0,1-3.523.983,6.147,6.147,0,0,1-2.594-.521,4.353,4.353,0,0,1-1.778-1.429,3.32,3.32,0,0,1-.645-1.96h2.943a1.621,1.621,0,0,0,.612,1.268,2.429,2.429,0,0,0,1.525.44,2.248,2.248,0,0,0,1.348-.338A1.053,1.053,0,0,0,39.51-3.212ZM47.8,0H44.688V-11.623H47.8ZM44.5-14.631a1.529,1.529,0,0,1,.467-1.149,1.755,1.755,0,0,1,1.273-.451,1.759,1.759,0,0,1,1.268.451,1.52,1.52,0,0,1,.473,1.149,1.524,1.524,0,0,1-.478,1.16,1.764,1.764,0,0,1-1.262.451,1.764,1.764,0,0,1-1.262-.451A1.524,1.524,0,0,1,44.5-14.631ZM51.111,0V-9.346H49.382v-2.277h1.729v-.537a4.359,4.359,0,0,1,1.348-3.378A5.424,5.424,0,0,1,56.2-16.726a12.417,12.417,0,0,1,3.523.634l-.451,2.567a13.747,13.747,0,0,0-1.633-.4,8.023,8.023,0,0,0-1.246-.091q-2.17,0-2.17,1.923v.473h2.288v2.277H54.227V0ZM61.177,0H58.062V-11.623h3.115Zm7.4-2.288a2.036,2.036,0,0,0,1.4-.473,1.656,1.656,0,0,0,.559-1.257h2.911A3.982,3.982,0,0,1,72.8-1.853,4.253,4.253,0,0,1,71.065-.328a5.43,5.43,0,0,1-2.433.542A5.046,5.046,0,0,1,64.7-1.37a6.27,6.27,0,0,1-1.439-4.377v-.2a6.2,6.2,0,0,1,1.429-4.286,4.987,4.987,0,0,1,3.921-1.6,4.889,4.889,0,0,1,3.5,1.241,4.393,4.393,0,0,1,1.337,3.3H70.533a2.133,2.133,0,0,0-.559-1.474,1.862,1.862,0,0,0-1.418-.567,1.87,1.87,0,0,0-1.638.791,4.583,4.583,0,0,0-.553,2.566v.323a4.641,4.641,0,0,0,.548,2.582A1.893,1.893,0,0,0,68.578-2.288ZM81.952,0a3.448,3.448,0,0,1-.312-1.042A3.756,3.756,0,0,1,78.708.215a4.127,4.127,0,0,1-2.831-.988,3.178,3.178,0,0,1-1.123-2.492A3.285,3.285,0,0,1,76.125-6.1a6.758,6.758,0,0,1,3.958-1h1.429v-.666A1.915,1.915,0,0,0,81.1-9.056a1.627,1.627,0,0,0-1.305-.483,1.85,1.85,0,0,0-1.23.376,1.277,1.277,0,0,0-.446,1.031h-3.1A3.118,3.118,0,0,1,75.636-10,4.118,4.118,0,0,1,77.4-11.349a6.42,6.42,0,0,1,2.557-.489,5.073,5.073,0,0,1,3.411,1.08,3.777,3.777,0,0,1,1.262,3.035v5.038a5.557,5.557,0,0,0,.462,2.5V0ZM79.385-2.159a2.674,2.674,0,0,0,1.268-.306,2.011,2.011,0,0,0,.859-.822v-2h-1.16q-2.331,0-2.481,1.611l-.011.183a1.243,1.243,0,0,0,.408.956A1.586,1.586,0,0,0,79.385-2.159Zm12.461-.129a2.036,2.036,0,0,0,1.4-.473A1.656,1.656,0,0,0,93.8-4.018h2.911a3.982,3.982,0,0,1-.645,2.165A4.253,4.253,0,0,1,94.333-.328,5.43,5.43,0,0,1,91.9.215,5.046,5.046,0,0,1,87.968-1.37a6.27,6.27,0,0,1-1.439-4.377v-.2a6.2,6.2,0,0,1,1.429-4.286,4.987,4.987,0,0,1,3.921-1.6,4.889,4.889,0,0,1,3.5,1.241,4.393,4.393,0,0,1,1.337,3.3H93.8a2.133,2.133,0,0,0-.559-1.474,1.862,1.862,0,0,0-1.418-.567,1.87,1.87,0,0,0-1.638.791,4.583,4.583,0,0,0-.553,2.566v.323a4.641,4.641,0,0,0,.548,2.582A1.893,1.893,0,0,0,91.846-2.288ZM101.761,0H98.646V-11.623h3.115Zm-3.3-14.631a1.529,1.529,0,0,1,.467-1.149,1.755,1.755,0,0,1,1.273-.451,1.759,1.759,0,0,1,1.268.451,1.52,1.52,0,0,1,.473,1.149,1.524,1.524,0,0,1-.478,1.16,1.764,1.764,0,0,1-1.262.451,1.764,1.764,0,0,1-1.262-.451A1.524,1.524,0,0,1,98.463-14.631Zm5.371,8.712A6.893,6.893,0,0,1,104.5-9a4.876,4.876,0,0,1,1.917-2.095,5.594,5.594,0,0,1,2.906-.741,5.293,5.293,0,0,1,3.84,1.439,5.777,5.777,0,0,1,1.66,3.91l.021.795A6.075,6.075,0,0,1,113.352-1.4,5.19,5.19,0,0,1,109.345.215,5.216,5.216,0,0,1,105.333-1.4a6.182,6.182,0,0,1-1.5-4.383Zm3.1.22a4.345,4.345,0,0,0,.623,2.534,2.055,2.055,0,0,0,1.783.877,2.06,2.06,0,0,0,1.762-.866,4.754,4.754,0,0,0,.634-2.77,4.3,4.3,0,0,0-.634-2.518,2.06,2.06,0,0,0-1.783-.893,2.027,2.027,0,0,0-1.762.888A4.834,4.834,0,0,0,106.938-5.7Zm3-10.8h3.384l-2.976,3.33h-2.524Zm9.679,4.877.1,1.343a4.058,4.058,0,0,1,3.341-1.558,3.372,3.372,0,0,1,2.75,1.085,5.062,5.062,0,0,1,.924,3.244V0h-3.1V-7.434a2.014,2.014,0,0,0-.43-1.434,1.924,1.924,0,0,0-1.429-.446A2.136,2.136,0,0,0,119.8-8.2V0h-3.1V-11.623Z" transform="translate(950.273 11031)" fill="#12263f"/>
    <path id="Trazado_656160" data-name="Trazado 656160" d="M3.646-7.941H5.075a2.013,2.013,0,0,0,1.512-.51,1.87,1.87,0,0,0,.492-1.354,1.653,1.653,0,0,0-.487-1.271,1.888,1.888,0,0,0-1.341-.455,1.979,1.979,0,0,0-1.29.422,1.35,1.35,0,0,0-.52,1.1H.761a3.3,3.3,0,0,1,.571-1.9,3.8,3.8,0,0,1,1.6-1.313,5.326,5.326,0,0,1,2.259-.473,5.051,5.051,0,0,1,3.358,1.025A3.5,3.5,0,0,1,9.76-9.843a2.842,2.842,0,0,1-.566,1.707,3.677,3.677,0,0,1-1.484,1.2,3.356,3.356,0,0,1,1.7,1.225,3.322,3.322,0,0,1,.561,1.93A3.556,3.556,0,0,1,8.66-.9,5.278,5.278,0,0,1,5.186.186,5,5,0,0,1,1.879-.881,3.484,3.484,0,0,1,.594-3.7H3.275a1.553,1.553,0,0,0,.571,1.243,2.1,2.1,0,0,0,1.406.482,2.112,2.112,0,0,0,1.5-.506,1.745,1.745,0,0,0,.543-1.341q0-2.022-2.227-2.022H3.646Zm10.9,0h1.429a2.013,2.013,0,0,0,1.512-.51,1.87,1.87,0,0,0,.492-1.354,1.653,1.653,0,0,0-.487-1.271,1.888,1.888,0,0,0-1.341-.455,1.979,1.979,0,0,0-1.29.422,1.35,1.35,0,0,0-.52,1.1H11.662a3.3,3.3,0,0,1,.571-1.9,3.8,3.8,0,0,1,1.6-1.313,5.326,5.326,0,0,1,2.259-.473,5.051,5.051,0,0,1,3.358,1.025,3.5,3.5,0,0,1,1.215,2.825,2.842,2.842,0,0,1-.566,1.707,3.677,3.677,0,0,1-1.484,1.2,3.356,3.356,0,0,1,1.7,1.225,3.322,3.322,0,0,1,.561,1.93A3.556,3.556,0,0,1,19.561-.9,5.278,5.278,0,0,1,16.087.186,5,5,0,0,1,12.78-.881,3.484,3.484,0,0,1,11.495-3.7h2.681a1.553,1.553,0,0,0,.571,1.243,2.1,2.1,0,0,0,1.406.482,2.112,2.112,0,0,0,1.5-.506,1.745,1.745,0,0,0,.543-1.341q0-2.022-2.227-2.022H14.547ZM31.812-5.585A6.843,6.843,0,0,1,30.652-1.3a4.048,4.048,0,0,1-3.4,1.484A4.076,4.076,0,0,1,23.88-1.271a6.643,6.643,0,0,1-1.2-4.175V-7.932a6.753,6.753,0,0,1,1.174-4.3,4.078,4.078,0,0,1,3.382-1.466,4.082,4.082,0,0,1,3.377,1.452,6.622,6.622,0,0,1,1.2,4.17ZM29.131-8.319a4.946,4.946,0,0,0-.459-2.447,1.552,1.552,0,0,0-1.433-.766,1.524,1.524,0,0,0-1.4.729,4.629,4.629,0,0,0-.478,2.28v3.287a5.192,5.192,0,0,0,.45,2.456,1.531,1.531,0,0,0,1.443.8,1.506,1.506,0,0,0,1.419-.771,5.068,5.068,0,0,0,.455-2.359Zm4.741,7A1.35,1.35,0,0,1,34.3-2.356a1.531,1.531,0,0,1,1.081-.4,1.543,1.543,0,0,1,1.09.4,1.35,1.35,0,0,1,.431,1.039,1.331,1.331,0,0,1-.427,1.025A1.55,1.55,0,0,1,35.384.1,1.537,1.537,0,0,1,34.3-.292,1.331,1.331,0,0,1,33.872-1.317ZM48.233-5.585A6.843,6.843,0,0,1,47.073-1.3a4.048,4.048,0,0,1-3.4,1.484A4.076,4.076,0,0,1,40.3-1.271a6.643,6.643,0,0,1-1.2-4.175V-7.932a6.753,6.753,0,0,1,1.174-4.3,4.078,4.078,0,0,1,3.382-1.466,4.082,4.082,0,0,1,3.377,1.452,6.622,6.622,0,0,1,1.2,4.17ZM45.552-8.319a4.946,4.946,0,0,0-.459-2.447,1.552,1.552,0,0,0-1.433-.766,1.524,1.524,0,0,0-1.4.729,4.629,4.629,0,0,0-.478,2.28v3.287a5.192,5.192,0,0,0,.45,2.456,1.531,1.531,0,0,0,1.443.8A1.506,1.506,0,0,0,45.1-2.747a5.068,5.068,0,0,0,.455-2.359Z" transform="translate(989.273 11076)" fill="#12263f"/>
    <path id="Trazado_656161" data-name="Trazado 656161" d="M1.206,0V-13.508H5.938a6.213,6.213,0,0,1,3.729.942,3.22,3.22,0,0,1,1.271,2.76,3.052,3.052,0,0,1-.51,1.749A2.947,2.947,0,0,1,9.008-6.949,2.852,2.852,0,0,1,10.646-5.9a3.1,3.1,0,0,1,.6,1.93A3.565,3.565,0,0,1,10-1.021,5.6,5.6,0,0,1,6.457,0ZM3.989-5.882v3.646H6.374A2.3,2.3,0,0,0,7.909-2.7,1.607,1.607,0,0,0,8.461-4a1.7,1.7,0,0,0-1.92-1.883Zm0-1.967h2.06q2.106-.037,2.106-1.679a1.552,1.552,0,0,0-.533-1.322,2.806,2.806,0,0,0-1.684-.4H3.989ZM21.848-9.917a3.142,3.142,0,0,1-.492,1.744A3.539,3.539,0,0,1,20-6.958a3.917,3.917,0,0,1,1.559,1.3A3.344,3.344,0,0,1,22.136-3.7,3.541,3.541,0,0,1,20.911-.858,4.967,4.967,0,0,1,17.581.186a4.99,4.99,0,0,1-3.34-1.048A3.532,3.532,0,0,1,13.007-3.7a3.365,3.365,0,0,1,.575-1.958,3.846,3.846,0,0,1,1.549-1.3,3.5,3.5,0,0,1-1.35-1.215,3.164,3.164,0,0,1-.487-1.744,3.5,3.5,0,0,1,1.15-2.751,4.529,4.529,0,0,1,3.126-1.025,4.559,4.559,0,0,1,3.122,1.016A3.488,3.488,0,0,1,21.848-9.917ZM19.445-3.9a1.945,1.945,0,0,0-.51-1.41,1.819,1.819,0,0,0-1.373-.529,1.816,1.816,0,0,0-1.364.524,1.941,1.941,0,0,0-.51,1.415,1.94,1.94,0,0,0,.5,1.392,1.825,1.825,0,0,0,1.392.529,1.821,1.821,0,0,0,1.368-.51A1.937,1.937,0,0,0,19.445-3.9Zm-.278-5.891a1.856,1.856,0,0,0-.417-1.266,1.481,1.481,0,0,0-1.178-.478,1.492,1.492,0,0,0-1.169.464,1.845,1.845,0,0,0-.417,1.28,1.939,1.939,0,0,0,.417,1.3A1.461,1.461,0,0,0,17.581-8a1.447,1.447,0,0,0,1.174-.492A1.953,1.953,0,0,0,19.167-9.788Zm5.177,3.145.779-6.865h7.57v2.236H27.322l-.334,2.9a4.251,4.251,0,0,1,2.032-.51,3.893,3.893,0,0,1,3.024,1.2,4.78,4.78,0,0,1,1.095,3.349,4.9,4.9,0,0,1-.552,2.343A3.9,3.9,0,0,1,31-.385a4.938,4.938,0,0,1-2.431.571,5.244,5.244,0,0,1-2.273-.5,4.032,4.032,0,0,1-1.656-1.4A3.805,3.805,0,0,1,24-3.757h2.653a1.982,1.982,0,0,0,.589,1.313,1.868,1.868,0,0,0,1.322.469,1.648,1.648,0,0,0,1.4-.654,3.03,3.03,0,0,0,.492-1.851,2.505,2.505,0,0,0-.566-1.763,2.077,2.077,0,0,0-1.6-.612,2.321,2.321,0,0,0-1.549.5l-.26.241Zm10.9,0,.779-6.865h7.57v2.236H38.223l-.334,2.9a4.251,4.251,0,0,1,2.032-.51,3.893,3.893,0,0,1,3.024,1.2A4.78,4.78,0,0,1,44.04-4.333a4.9,4.9,0,0,1-.552,2.343,3.9,3.9,0,0,1-1.582,1.6,4.938,4.938,0,0,1-2.431.571,5.244,5.244,0,0,1-2.273-.5,4.032,4.032,0,0,1-1.656-1.4,3.805,3.805,0,0,1-.645-2.05h2.653a1.982,1.982,0,0,0,.589,1.313,1.868,1.868,0,0,0,1.322.469,1.648,1.648,0,0,0,1.4-.654,3.03,3.03,0,0,0,.492-1.851,2.505,2.505,0,0,0-.566-1.763,2.077,2.077,0,0,0-1.6-.612,2.321,2.321,0,0,0-1.549.5l-.26.241Zm18.917.789H48.817v3.618h6.271V0H46.034V-13.508H55.07v2.254H48.817v3.219h5.344Z" transform="translate(1160.273 11076)" fill="#12263f"/>
    <path id="Trazado_656162" data-name="Trazado 656162" d="M13.675-5.21a5.535,5.535,0,0,1-1.864,3.975A6.546,6.546,0,0,1,7.38.215,5.886,5.886,0,0,1,2.648-1.81,8.3,8.3,0,0,1,.924-7.369v-.956A9.376,9.376,0,0,1,1.719-12.3a5.957,5.957,0,0,1,2.272-2.637,6.364,6.364,0,0,1,3.432-.918,6.376,6.376,0,0,1,4.361,1.45A5.948,5.948,0,0,1,13.7-10.334H10.474a3.266,3.266,0,0,0-.843-2.2,3.123,3.123,0,0,0-2.208-.682,2.738,2.738,0,0,0-2.412,1.155,6.472,6.472,0,0,0-.822,3.583v1.182a6.927,6.927,0,0,0,.768,3.706A2.687,2.687,0,0,0,7.38-2.417,3.182,3.182,0,0,0,9.609-3.1a3.081,3.081,0,0,0,.843-2.111Zm8.873,4.028a3.893,3.893,0,0,1-3.18,1.4A3.672,3.672,0,0,1,16.516-.859a4.586,4.586,0,0,1-1-3.147v-7.616h3.1v7.518q0,1.817,1.654,1.817a2.242,2.242,0,0,0,2.17-1.1v-8.238h3.115V0H22.634Zm9.066-13.3v2.857H33.6v2.277H31.614v5.8a1.385,1.385,0,0,0,.247.924,1.241,1.241,0,0,0,.945.279,4.951,4.951,0,0,0,.913-.075V-.064a6.391,6.391,0,0,1-1.88.279q-3.266,0-3.33-3.3V-9.346h-1.7v-2.277h1.7V-14.48Zm7.434,0v2.857h1.987v2.277H39.048v5.8a1.385,1.385,0,0,0,.247.924,1.241,1.241,0,0,0,.945.279,4.951,4.951,0,0,0,.913-.075V-.064a6.391,6.391,0,0,1-1.88.279q-3.266,0-3.33-3.3V-9.346h-1.7v-2.277h1.7V-14.48ZM48.114.215a5.706,5.706,0,0,1-4.163-1.568,5.575,5.575,0,0,1-1.606-4.179v-.3a7.021,7.021,0,0,1,.677-3.131,4.967,4.967,0,0,1,1.917-2.127,5.382,5.382,0,0,1,2.831-.747,4.824,4.824,0,0,1,3.754,1.5,6.111,6.111,0,0,1,1.37,4.265V-4.8h-7.4A2.884,2.884,0,0,0,46.4-2.976a2.744,2.744,0,0,0,1.917.688,3.351,3.351,0,0,0,2.8-1.3L52.647-1.88A4.66,4.66,0,0,1,50.757-.338,6.2,6.2,0,0,1,48.114.215Zm-.354-9.55a1.94,1.94,0,0,0-1.5.626,3.241,3.241,0,0,0-.736,1.791h4.318v-.248a2.311,2.311,0,0,0-.559-1.6A2,2,0,0,0,47.76-9.335Zm13.428.623A8.434,8.434,0,0,0,60.07-8.8a2.274,2.274,0,0,0-2.31,1.192V0h-3.1V-11.623h2.933l.086,1.386a2.877,2.877,0,0,1,2.589-1.6,3.253,3.253,0,0,1,.967.14Z" transform="translate(1158.273 11031)" fill="#12263f"/>
  </g>
</svg>
