<svg id="Grupo_952872" data-name="Grupo 952872" xmlns="http://www.w3.org/2000/svg" xmlns:xlink="http://www.w3.org/1999/xlink" width="82.671" height="95.984" viewBox="0 0 82.671 95.984">
  <defs>
    <clipPath id="clip-path">
      <rect id="Rectángulo_34870" data-name="Rectángulo 34870" width="82.671" height="95.984" fill="none"/>
    </clipPath>
  </defs>
  <g id="Grupo_80182" data-name="Grupo 80182" transform="translate(0 0)" clip-path="url(#clip-path)">
    <path id="Trazado_151723" data-name="Trazado 151723" d="M22.691,74.719l14.48,16.644s-14.082,15.454-22.008,7.925a14.877,14.877,0,0,1-1.578-4.446c-.961-8.272,2.37-23.69,2.37-23.69Z" transform="translate(33.102 -5.371)" fill="#08101a"/>
    <path id="Trazado_151724" data-name="Trazado 151724" d="M1.905,37.249l4.7,5.738.74.919,20.891,25.52.718.9,6.225,7.6.792.972L48.263,93.911a.17.17,0,0,0-.01-.042c-.159-.5-1.553-5.738,3.846-14.678a25.026,25.026,0,0,1,6.573-6.541c9.394-6.922,24-12.681,24-12.681s-12.4-13.41-27.929-31.438C44.185,16.294,33.047,0,33.047,0S16.562,8.982,9.43,16.115C4.61,20.934-3.78,27.866,1.905,37.249" transform="translate(0 0)" fill="#31313c"/>
    <path id="Trazado_151725" data-name="Trazado 151725" d="M22.14,82.358l.792.972a30.738,30.738,0,0,1,3.339-7.5c5.051-8.041,13.938-12.7,22.529-16.02.634-.243.36-1.268-.275-1.025C39.66,62.206,30.562,67,25.362,75.288a30.582,30.582,0,0,0-3.223,7.07" transform="translate(13.042 -4.435)" fill="#fff"/>
    <path id="Trazado_151726" data-name="Trazado 151726" d="M31.179,73.171l.718.9A46.487,46.487,0,0,1,56.434,50.663c.624-.253.349-1.279-.286-1.025a47.661,47.661,0,0,0-24.97,23.533" transform="translate(-2.939 -3.744)" fill="#fff"/>
    <path id="Trazado_151727" data-name="Trazado 151727" d="M53.681,44.425l.74.919A46.5,46.5,0,0,1,79.771,20.1c.613-.264.338-1.279-.285-1.025A47.69,47.69,0,0,0,53.681,44.425" transform="translate(-47.072 -1.437)" fill="#fff"/>
  </g>
</svg>
